PathFileType	4	(X/Y/Z)	c:/Users/goper/Files/vsCode/490R/osim_files/C11/C11_Slow_06.trc
DataRate	CameraRate	NumFrames	NumMarkers	Units                	OrigDataRate	OrigDataStartFrame	OrigNumFrames
120.00	120.00	10	36	mm	120.0	1040	1188
                Frame#	Time	LPSIS			LASIS			LTH1			LTH2			LTH3			LTH4			LLFE			LMFE			LSH1			LSH2			LSH3			LSH4			LLMAL			LMMAL			LCAL			LMTP5			LTOE			LMTP1			RPSIS			RASIS			RTH1			RTH2			RTH3			RTH4			RLFE			RMFE			RSH1			RSH2			RSH3			RSH4			RLMAL			RMMAL			RCAL			RMTP1			RTOE			RMTP5		
		X1	Y1	Z1	X2	Y2	Z2	X3	Y3	Z3	X4	Y4	Z4	X5	Y5	Z5	X6	Y6	Z6	X7	Y7	Z7	X8	Y8	Z8	X9	Y9	Z9	X10	Y10	Z10	X11	Y11	Z11	X12	Y12	Z12	X13	Y13	Z13	X14	Y14	Z14	X15	Y15	Z15	X16	Y16	Z16	X17	Y17	Z17	X18	Y18	Z18	X19	Y19	Z19	X20	Y20	Z20	X21	Y21	Z21	X22	Y22	Z22	X23	Y23	Z23	X24	Y24	Z24	X25	Y25	Z25	X26	Y26	Z26	X27	Y27	Z27	X28	Y28	Z28	X29	Y29	Z29	X30	Y30	Z30	X31	Y31	Z31	X32	Y32	Z32	X33	Y33	Z33	X34	Y34	Z34	X35	Y35	Z35	X36	Y36	Z36

1040	8.65833	-3969.72681	979.38428	163.82626	-4131.04932	990.42554	248.42801	-3972.66382	610.51709	272.02280	-3971.04102	564.65045	273.52521	-4029.50439	602.24164	291.26257	-4020.42993	557.42957	284.42926	0.00000	0.00000	0.00000	-3974.76929	491.12375	275.05109	-3941.38818	384.84793	287.18515	-3914.25757	346.81134	282.20078	-3888.33179	415.04755	281.77386	0.00000	0.00000	0.00000	-3774.47241	117.48720	208.41457	-3822.76978	131.60837	125.46413	-3717.01147	88.81199	147.52081	-3871.07593	49.88531	258.21912	-3956.90234	68.35879	203.34415	-3922.27148	54.91929	149.86507	0.00000	0.00000	0.00000	-4131.92725	976.07166	16.17227	-4227.47412	650.51257	-15.24972	-4237.28369	607.90637	-9.85675	0.00000	0.00000	0.00000	0.00000	0.00000	0.00000	-4243.10205	523.25989	-8.76858	-4214.41748	487.43967	95.44071	0.00000	0.00000	0.00000	0.00000	0.00000	0.00000	0.00000	0.00000	0.00000	-1148.96948	737.24878	2785.08765	0.00000	0.00000	0.00000	-4333.12402	118.98248	96.95097	-4260.76074	68.60360	51.26796	-4474.66357	84.21126	102.71963	-4482.82764	95.95616	52.36723	-4453.34961	60.98652	-8.35534
1041	8.66667	-3977.26294	978.83307	162.35852	-4138.67822	989.84045	248.53711	-3981.51367	609.00659	270.39203	-3980.18970	563.29156	272.12436	-4038.23950	601.21826	290.50311	-4029.34668	556.14258	283.64679	0.00000	0.00000	0.00000	-3985.28735	489.63657	275.01892	0.00000	0.00000	0.00000	-3920.98389	346.53342	278.64020	0.00000	0.00000	0.00000	-3874.61060	373.19409	272.65497	-3776.39966	120.49377	208.16530	-3825.09863	133.64941	125.32832	-3718.56519	93.00654	147.30760	-3871.43237	50.37418	258.02380	-3957.26099	68.20210	203.39993	-3922.77734	54.86198	150.03278	0.00000	0.00000	0.00000	-4141.58545	976.02502	16.22937	-4237.99268	651.49335	-14.62765	-4247.80957	608.87115	-9.45280	0.00000	0.00000	0.00000	0.00000	0.00000	0.00000	-4252.65234	523.54303	-8.83908	-4222.57568	487.50900	94.89294	0.00000	0.00000	0.00000	0.00000	0.00000	0.00000	0.00000	0.00000	0.00000	-1148.95740	737.29639	2785.08081	0.00000	0.00000	0.00000	-4334.70020	116.39139	96.70539	-4262.15137	69.47770	51.44130	-4476.59424	79.71597	102.40695	-4485.03174	91.22650	52.08633	-4454.79150	58.00354	-9.34038
1042	8.67500	-3986.20850	977.92987	160.45485	-4146.30713	989.38831	248.51584	-3990.80249	607.55042	268.93341	-3992.12158	562.42334	272.70734	-4047.44702	600.24005	289.95099	-4038.77393	554.93347	283.10229	0.00000	0.00000	0.00000	-3995.65552	489.91742	274.00949	0.00000	0.00000	0.00000	-3928.19238	347.07690	278.17752	0.00000	0.00000	0.00000	-3882.50073	374.84189	271.79922	-3778.75464	124.06605	208.19640	-3827.78394	136.23515	125.49477	-3720.33325	97.86949	147.22987	-3871.78760	50.84315	257.96945	-3957.61963	68.07426	203.49774	-3923.33521	54.90253	150.29640	0.00000	0.00000	0.00000	-4150.89502	975.93866	16.26825	-4248.12061	652.37689	-14.54106	-4257.98926	609.72217	-9.57235	0.00000	0.00000	0.00000	0.00000	0.00000	0.00000	-4261.89746	523.56244	-8.90308	-4230.60645	487.46149	94.24421	0.00000	0.00000	0.00000	0.00000	0.00000	0.00000	0.00000	0.00000	0.00000	-1149.00977	737.29584	2785.07861	0.00000	0.00000	0.00000	-4335.46045	114.64243	97.07150	-4262.96826	70.06441	51.58434	-4477.60107	76.82962	102.99086	-4486.42285	88.60577	52.78206	-4455.65088	57.25141	-9.64499
1043	8.68333	-3993.38843	977.59003	159.24283	-4153.83643	989.10144	248.37669	-4000.61694	606.01117	268.04047	0.00000	0.00000	0.00000	-4057.03564	599.13696	289.61832	-4048.84937	553.83221	282.77197	0.00000	0.00000	0.00000	-4005.73462	489.30081	273.21933	0.00000	0.00000	0.00000	-3936.00464	347.66656	277.86707	0.00000	0.00000	0.00000	-3891.10449	376.59824	271.38678	-3784.91064	129.60371	213.76863	-3830.70581	139.25078	125.84854	-3722.43628	103.28032	147.36189	-3872.21362	51.41849	257.98770	-3959.21899	69.39394	202.70854	-3924.01270	54.99261	150.59232	0.00000	0.00000	0.00000	-4159.97803	975.99402	16.32007	-4257.77783	653.36414	-14.97781	-4267.61084	610.76440	-9.85639	0.00000	0.00000	0.00000	0.00000	0.00000	0.00000	-4272.04395	525.79187	-7.97864	-4238.87109	487.66058	93.89876	0.00000	0.00000	0.00000	0.00000	0.00000	0.00000	0.00000	0.00000	0.00000	-1148.95007	737.35907	2785.05737	0.00000	0.00000	0.00000	-4335.68896	113.52859	97.99873	-4263.35596	70.29697	51.80057	-4478.04932	74.69014	104.13882	-4486.89746	86.73732	54.09661	-4456.04492	57.28227	-9.31493
1044	8.69167	-4001.25562	977.21350	157.56281	-4161.26416	988.97974	248.16182	-4010.85889	604.44110	267.09882	-4008.58984	558.24402	266.42703	-4067.11499	597.89154	289.43054	-4059.63989	552.83862	282.58047	0.00000	0.00000	0.00000	-4015.54907	488.68204	270.96902	0.00000	0.00000	0.00000	-3944.79663	348.53900	277.90189	0.00000	0.00000	0.00000	-3900.43823	378.40213	271.30429	-3789.16406	133.58032	214.52274	-3834.23364	142.79150	126.42117	-3724.83789	109.84268	147.75784	-3873.10132	52.49643	258.13434	-3962.17212	72.21807	203.00821	-3924.79004	55.23146	150.88182	0.00000	0.00000	0.00000	-4168.82422	976.51459	16.38465	-4266.85156	654.45416	-15.61545	-4276.68506	611.95795	-10.25429	0.00000	0.00000	0.00000	0.00000	0.00000	0.00000	-4280.80469	526.52478	-7.27507	-4246.91553	488.31833	94.30807	0.00000	0.00000	0.00000	0.00000	0.00000	0.00000	0.00000	0.00000	0.00000	-1148.96313	737.35742	2785.09058	0.00000	0.00000	0.00000	-4335.93555	112.56250	98.67374	-4263.59814	70.53500	51.93528	-4478.20264	72.57291	104.99804	-4487.35693	85.02156	55.13250	-4456.35059	57.27505	-9.08923
1045	8.70000	-4008.50928	977.26288	156.44714	-4168.46484	988.98303	247.86026	-4021.68628	602.97241	266.45154	-4020.81812	556.60883	266.40878	-4077.86841	597.06403	289.36063	-4070.75488	551.70044	282.50803	0.00000	0.00000	0.00000	-4025.81641	487.40747	268.76254	0.00000	0.00000	0.00000	-3954.35400	349.46066	278.05029	0.00000	0.00000	0.00000	-3910.92700	380.53784	271.44025	-3788.89624	138.75180	212.41740	-3838.26025	146.75256	127.22929	-3728.03247	116.99661	148.26094	-3872.99536	52.55883	256.13303	-3967.62256	77.01151	201.67676	-3925.74487	55.47403	151.16718	0.00000	0.00000	0.00000	-4177.35205	977.33398	16.27349	-4275.45215	655.49396	-16.01108	-4285.11670	612.93201	-10.42718	0.00000	0.00000	0.00000	-4232.89893	592.33527	-25.67420	-4289.31152	527.70740	-6.26954	-4255.03027	490.26126	95.37165	0.00000	0.00000	0.00000	0.00000	0.00000	0.00000	0.00000	0.00000	0.00000	-1149.02002	737.34985	2785.08813	0.00000	0.00000	0.00000	-4336.12939	111.79457	99.01427	-4263.82031	70.75813	52.05241	-4478.55469	71.29180	105.28025	-4487.84229	83.90546	55.58463	-4456.62646	57.12838	-9.07853
1046	8.70833	-4016.00977	977.57959	155.05913	-4175.45996	989.29517	247.52196	-4033.14502	601.41437	266.09433	-4031.80078	555.11407	265.77316	-4089.20923	596.45526	289.59259	-4082.50781	550.79596	282.71695	0.00000	0.00000	0.00000	-4039.15771	486.47168	269.38852	0.00000	0.00000	0.00000	-3964.67554	350.45300	278.46979	0.00000	0.00000	0.00000	-3921.96313	382.48840	271.91721	-3793.60034	144.01431	213.27335	-3843.13330	151.16736	128.07639	-3732.19067	124.96451	148.92059	-3874.95142	54.81949	256.46207	-3960.30127	67.87540	203.92125	-3926.90601	55.75851	151.37172	0.00000	0.00000	0.00000	-4185.77051	978.37445	16.01873	-4283.49512	656.31049	-16.08390	-4293.11084	613.81555	-10.28331	0.00000	0.00000	0.00000	0.00000	0.00000	0.00000	-4297.18994	528.82574	-5.40915	-4262.52344	492.76068	96.35106	0.00000	0.00000	0.00000	0.00000	0.00000	0.00000	0.00000	0.00000	0.00000	-1149.03015	737.30817	2785.08984	0.00000	0.00000	0.00000	-4336.15039	111.33167	99.18456	-4263.94434	70.73087	52.03679	-4478.69336	70.45547	105.42458	-4488.08594	83.17822	55.78665	-4456.77930	57.01448	-9.12528
1047	8.71667	-4022.69385	977.90759	153.94077	-4182.19580	989.87079	247.12726	-4044.68115	599.77655	265.78998	-4045.02124	553.56793	266.26566	-4100.61035	595.51807	289.93503	-4094.91821	550.10315	283.18835	0.00000	0.00000	0.00000	-4051.48462	485.84283	269.25775	0.00000	0.00000	0.00000	-3975.58984	351.60300	279.07724	-3961.09619	424.55865	280.31735	-3933.90625	384.93127	272.62476	-3798.95215	149.90756	214.02402	-3848.57397	155.92368	129.07472	-3736.81348	133.69421	149.42720	-3876.34229	56.53441	256.49875	-3961.33984	67.99623	204.07390	-3928.31860	56.23863	151.50822	0.00000	0.00000	0.00000	-4194.08447	979.56952	15.79968	-4291.04102	656.89795	-16.08024	-4300.51855	614.39832	-10.06012	0.00000	0.00000	0.00000	0.00000	0.00000	0.00000	-4304.42041	529.60968	-4.87000	-4269.22412	495.08517	97.01665	0.00000	0.00000	0.00000	0.00000	0.00000	0.00000	0.00000	0.00000	0.00000	-1148.99756	737.26923	2785.08618	0.00000	0.00000	0.00000	-4336.23779	111.05885	99.32605	-4264.01221	70.76308	51.98738	-4478.79199	69.85313	105.60834	-4488.20361	82.57591	55.95352	-4456.86670	56.92635	-9.15879
1048	8.72500	-4029.96631	978.39606	152.79924	-4188.63574	990.67499	246.83612	-4056.96021	598.37640	265.88879	-4057.73389	552.13684	266.43707	-4112.68701	595.17224	290.26837	-4107.47070	549.29242	283.83246	0.00000	0.00000	0.00000	-4065.46387	485.29123	270.04880	-4020.39917	383.84799	286.57959	-3987.10620	353.09760	279.70627	0.00000	0.00000	0.00000	-3946.17261	387.40155	273.28708	-3805.06689	155.94351	214.95560	-3855.06152	161.06688	130.14542	-3742.84351	142.99994	150.03975	-3877.88452	58.67920	256.47104	-3962.51514	68.17597	204.21407	-3930.06641	56.92915	151.67711	0.00000	0.00000	0.00000	-4202.23145	980.82916	15.63574	-4298.09570	657.21875	-16.33912	-4307.34961	614.90533	-9.94925	0.00000	0.00000	0.00000	0.00000	0.00000	0.00000	-4310.96973	530.04614	-4.46034	-4274.85693	496.19086	97.09575	0.00000	0.00000	0.00000	0.00000	0.00000	0.00000	0.00000	0.00000	0.00000	-1148.97852	737.25732	2785.08252	0.00000	0.00000	0.00000	-4336.28369	110.75199	99.34702	-4264.07129	70.87458	52.00358	-4478.91211	69.50064	105.65348	-4488.35547	82.12609	56.01032	-4456.95264	56.82056	-9.24363
1049	8.73333	-4037.53638	979.05811	151.25887	-4194.67432	991.55408	246.65034	-4069.04321	597.00562	265.92883	-4070.91382	550.83057	266.78485	-4124.83545	594.66406	290.98813	-4120.67041	549.02307	284.55359	0.00000	0.00000	0.00000	-4080.35083	484.89413	271.50000	-4033.05322	385.19650	287.54703	-3999.13623	354.97992	280.66910	0.00000	0.00000	0.00000	-3959.11597	390.22214	274.23264	-3811.82593	162.47169	215.75746	-3862.19434	166.37125	131.33270	-3749.20190	153.15471	150.41858	-3879.69702	61.23287	256.36014	-3963.77051	68.54131	204.31601	-3932.07178	57.95455	151.85455	0.00000	0.00000	0.00000	-4210.30908	982.05469	15.59037	-4304.56689	657.28381	-16.84830	-4313.61328	615.13690	-10.16645	0.00000	0.00000	0.00000	-4263.85107	591.93506	-27.34044	-4316.97461	530.37030	-4.27873	-4279.72998	496.28470	96.93353	0.00000	0.00000	0.00000	0.00000	0.00000	0.00000	0.00000	0.00000	0.00000	-1148.94946	737.29718	2785.07837	0.00000	0.00000	0.00000	-4336.22510	110.39358	99.40887	-4264.09082	70.96030	51.99770	-4478.99561	69.12278	105.71588	-4488.47510	81.79256	56.08221	-4457.01514	56.74319	-9.28803
